<svg version="1.2" xmlns="http://www.w3.org/2000/svg" viewBox="0 0 136 93" width="136" height="93"><defs><clipPath clipPathUnits="userSpaceOnUse" id="cp1"><path d="m89.76 59.44q0.09 0.04 0.19 0.09c3.04 1.53 4.29 5.29 2.8 8.41-1.17 2.44-0.8 6.04-0.59 7.14 0.32 1 0.94 2.52 1.85 2.82 2.06 0.7 6.63-1.51 8.99-3.31 2.72-2.06 6.55-1.49 8.58 1.29 2.02 2.76 1.48 6.69-1.22 8.77-1.11 0.85-11.06 8.23-20.15 5.2-3.29-1.1-7.66-3.96-9.86-11.34l-0.1-0.39c-0.2-0.88-1.86-8.73 1.49-15.72 1.46-3.05 5.02-4.34 8.02-2.96z"/></clipPath><clipPath clipPathUnits="userSpaceOnUse" id="cp2"><path d="m61.3 72.31q-0.16 0.06-0.31 0.15-0.15 0.08-0.29 0.18-0.14 0.09-0.27 0.21-0.13 0.11-0.25 0.23c-1.61 1.72-3.44 3.71-5.88 3.68-2.68-0.03-5.56-1.84-7.63-3.51-2.67-2.14-6.49-1.63-8.55 1.14-2.06 2.77-1.59 6.75 1.06 8.91 2.41 1.97 5.18 3.56 8.03 4.7 6.51 2.6 12.62-0.19 17.32-5 1.63-1.67 4.4-5.05 3.72-7.69-0.7-2.69-4.71-3.94-6.95-3z"/></clipPath></defs><style>.a{fill:#fefefe;stroke:#000;stroke-width:1.5}.b{fill:#64331a}.c{fill:#00a2f6;stroke:#000;stroke-width:1.5}.d{fill:#fefefe}.e{fill:#0085c9;stroke:#000;stroke-width:1.5}.f{fill:#0085c9}.g{fill:none;stroke:#000;stroke-width:1.5}
</style><path fill-rule="evenodd" class="a" d="m89.8 59.4q0.1 0.1 0.2 0.1c3 1.6 4.2 5.3 2.8 8.4-1.2 2.5-0.8 6.1-0.6 7.2 0.3 1 0.9 2.5 1.8 2.8 2.1 0.7 6.6-1.5 9-3.3 2.7-2.1 6.6-1.5 8.6 1.3 2 2.7 1.5 6.7-1.2 8.7-1.1 0.9-11.1 8.3-20.2 5.2-3.3-1-7.7-3.9-9.8-11.3l-0.1-0.4c-0.2-0.9-1.9-8.7 1.4-15.7 1.5-3.1 5.1-4.3 8.1-3z"/><g clip-path="url(#cp1)"><path fill-rule="evenodd" class="b" d="m100.4 77.7c0.6 0.3 1.2 0.3 1.8 0.2q-0.3 0.1-0.5 0.3-0.3 0.1-0.5 0.4-0.2 0.2-0.4 0.4-0.2 0.3-0.3 0.5-0.3 0.6-0.3 1.2 0 0.6 0.2 1.2 0.2 0.6 0.6 1 0.5 0.5 1 0.7c0.8 0.3 1.6 0.3 2.3 0.1-0.7 0.3-1.2 0.8-1.6 1.5-0.7 1.6 0 3.4 1.6 4.1q0.2 0 0.3 0.1c3.8-1.8 6.5-3.7 7.1-4.2q1.3-0.9 2-2.2 0.8-1.3 1-2.8 0.3-1.5-0.1-3-0.4-1.4-1.3-2.7c-2.6-3.3-7.4-4-10.8-1.5-1.1 0.7-2.4 1.5-3.8 2.2 0.1 1.1 0.7 2.1 1.7 2.5z"/></g><path fill-rule="evenodd" class="a" d="m61.3 72.3q-0.2 0.1-0.3 0.2-0.2 0-0.3 0.1-0.1 0.1-0.3 0.2-0.1 0.2-0.2 0.3c-1.6 1.7-3.5 3.7-5.9 3.7-2.7-0.1-5.6-1.9-7.6-3.5-2.7-2.2-6.5-1.7-8.6 1.1-2 2.8-1.6 6.7 1.1 8.9 2.4 2 5.2 3.6 8 4.7 6.5 2.6 12.6-0.2 17.3-5 1.7-1.7 4.4-5.1 3.7-7.7-0.6-2.7-4.7-3.9-6.9-3z"/><g clip-path="url(#cp2)"><path fill-rule="evenodd" class="b" d="m50.1 77.5c-0.5 0.2-1 0.2-1.5 0.1 0.6 0.3 1.1 0.9 1.4 1.7 0.6 1.6-0.1 3.4-1.5 4-0.7 0.3-1.4 0.3-2 0q0.3 0.1 0.5 0.3 0.1 0.2 0.3 0.4 0.2 0.2 0.3 0.4 0.1 0.2 0.2 0.5c0.6 1.6-0.1 3.4-1.5 4-0.1 0.1-0.2 0.1-0.4 0.1-5-3-11.1-6.3-10.2-14.1 1.3-10.8 12.1-2.5 16.1 0.1-0.1 1-0.7 2-1.7 2.5z"/></g><path fill-rule="evenodd" class="c" d="m47.8 68.9c7.3 5.9 17.1 8.2 26.3 7.8 6.2-0.3 12.6-0.9 18.5-3 6.5-2.4 10.5-6.7 14.9-12q0.5-0.6 1-1.2l0.6-0.5c1.2-1.3 2.4-2.6 3-4.3 0.9-2.2 0.9-4.9 1-7.5 0-1.3 0-2.5 0.1-3.7q0.2-1.8 0.5-3.6c0.6-4 1.1-7.8 0.1-11.9-3-12.9-13-25-23.2-32.8 0.2-1 0.4-1.8 0.6-2.6l0.2-0.5c0.3-1 0.6-2 0.6-2.6q0.1-0.6 0-1c-0.8-0.7-1.1-0.9-1.3-1 0.2-0.7 1-1 1.7-1.3l0.5-0.2c1.5-0.7 2.8-1.4 3.1-2-0.5-1.8-1-2-1.7-2.3-3.6-1.2-5.2-3.3-7-5.5-1.5-1.8-3.1-3.8-5.9-5.5-2.5-1.5-6.5-3-10.7-4.5-4.7-1.8-9.6-3.6-12.3-5.5-0.8-0.6-2.4-1.6-4.3-2.7-3.9-2.3-9.1-5.3-10.5-7.2-0.7-1-3.2-1.6-5.9-2.2l-0.2-0.1-0.5-0.1c-2-0.4-3.9-0.8-4.4-1.5q-0.3-0.6-0.9-0.8-0.6-0.2-1.3-0.1c-1 0-2.2 0.3-3.6 0.8-3.6 1.3-8.1 3.7-9.8 5-0.7 0.5-1 0.7-1.4 1-3.5 2.1-6.4 4.6-8.8 8-4.7 6.6-7.3 14.9-7.8 23-0.7 10 3 19.1 9.2 26.6 2.6 3.2 5.5 5.9 8.5 8.6l0.8 0.7 0.4 0.3 0.7 0.7c6.9 6 13.5 12.1 15.3 22 0.8 4.5 1.9 8 3.8 12.2 2.3 5.1 5.8 9.6 10.1 13z"/><path fill-rule="evenodd" class="a" d="m78.9 74.4c0 0 7.7-0.2 9.6-0.6 5.2-1 10.4-3 14.7-6.2 4.7-3.5 7.7-8 9.6-13.6 0.2-0.5 2.6-7.3 2.3-7.3 3 0.1 5.7-1.8 7.3-4.2 2.5-3.7 3.8-8.8 3.2-13.2-0.5-3.1-2.5-5.3-3.3-8.2-0.8-3.2-2.6-6-5-8.2-4.6-4.3-10.8-5.6-16.8-5.9-8.5-0.4-17 0.5-25.4 1.7-7.5 1.1-15.1 2.9-20.9 8.2-6.7 6.1-10.9 14.8-10.9 24 0 18.5 15.9 33.4 35.6 33.5z"/><path fill-rule="evenodd" class="d" d="m108.5 6.1c0 0-5.1-0.4-9.6 2.9l-6.7-7 9.1-3.2 8.2-1.2 0.5 7.4z"/><path fill-rule="evenodd" class="e" d="m125.5 24.9c2.7 0.2 5.2-0.4 6.9-2.3 0.9-1 1.4-2.2 1.5-3.6 0.1-1.3-0.1-2.7-0.7-3.9-1.1-2-2.9-2.7-4.9-3.3l-0.5-0.2c-1.1-0.3-2.2-0.7-3.1-1.4-2.2-1.7-2.7-3.9-3.1-6.2l-0.1-0.6c-0.1-0.7-0.1-1.1-0.2-1.6-0.5-2.6-1.8-4.4-3.5-5.6-2-1.4-4.5-2-7.3-2-2.3 0-4.3 0.4-6.5 1.1l-2.1 0.9c-0.2 0.5-0.2 0.7-0.2 1.7 0.1 1.9 1 4.6 2.4 6.6 1.2 1.6 2.7 2.7 4.5 2.9 1.5 1.8 2.2 4 2.9 6.1 0.9 3.1 1.9 6.1 4.8 8.1 2.2 1.5 5.8 3.1 9.2 3.3z"/><path fill-rule="evenodd" class="d" d="m67.6 5.5c-0.4 0-0.8 0-1.2 0.1-8.9 1.1-15.8 7.2-21.8 13.2-1.7 1.8-3.2 3-5.7 3.1-4.7 0.3-6.8-5.5-4.9-9.1 3-5.9 8.9-10.9 14-15.1 4.9-4 10.9-6.7 17.5-6.3 1.8 0.1 3.7 0.3 5.5 0.7-2.1 1.5-3.6 3.7-4.2 6.2-0.4 1.8-0.2 4.7 0.8 7.2z"/><path fill-rule="evenodd" class="f" d="m80.2-6.1c4.4 1.3 9 2.5 13.2 4.4 3.1 1.4 7.4 2.8 9.7 5.6 0.7 0.9 1.1 1.9 1.3 3.2 0.5 6.1-6.9 9.3-11.4 7.7-4.3-1.5-8.4-3.6-12.6-5.4-3.7-1.5-8.6-3.9-12.8-3.7-0.8-2.6-1-5.7-0.5-7.6 0.6-2.6 2.1-5 4.2-6.7 3 0.7 5.9 1.6 8.9 2.5z"/><path fill-rule="evenodd" class="g" d="m34 12.8c-1.9 3.6 0.2 9.4 4.9 9.1 2.5-0.1 4-1.3 5.7-3.1 6-6 12.9-12.1 21.8-13.2q0.1-0.1 0.3-0.1h0.9v0.2c4.1-0.2 8.8 2 12.4 3.5l0.4 0.2q1.7 0.7 3.4 1.5l2.3 1c2.3 1.1 4.6 2.1 6.9 2.9 4.5 1.6 11.9-1.6 11.4-7.7-0.2-1.3-0.6-2.3-1.3-3.2-2.3-2.8-6.6-4.2-9.7-5.6-4.2-1.9-8.8-3.1-13.2-4.4q-1.2-0.4-2.3-0.7l1.7-2.9h-11.7l-0.9 1.2q-0.2 0-0.4-0.1-0.2 0-0.4 0-0.1 0-0.3 0-0.2 0-0.4 0c-6.6-0.4-12.6 2.3-17.5 6.3-5.1 4.2-11 9.2-14 15.1z"/><path class="rotate-infinite" d="m91.4 50.4l4.7 4.7q-2.6 2.5-5.9 4-3.1 1.3-6.9 1.3-3.8 0-7-1.4-3.4-1.3-6-4-2.5-2.5-3.9-5.8-1.4-3.1-1.4-7 0-3.7 1.4-7 1.4-3.3 4-5.9 2.5-2.5 5.9-4 3-1.3 6.9-1.3 3.7 0 7 1.3 3.3 1.4 5.9 4.1 2.6 2.5 4 5.8 1 2.2 1.2 4.6l5.7-5.6 4 4-10.9 11h-3.9l-11-11 4.1-4 5.1 5.1q-0.2-0.8-0.5-1.5-0.9-2.2-2.5-3.7-1.7-1.8-3.8-2.6-2-0.8-4.4-0.8-2.4 0-4.4 0.8-2.1 0.9-3.7 2.5-1.7 1.7-2.6 3.8-0.8 2-0.8 4.4 0 2.4 0.9 4.4 0.9 2.1 2.5 3.7 1.6 1.7 3.7 2.6 2 0.8 4.5 0.8 2.3 0 4.3-0.8 2.1-0.9 3.8-2.5z"/></svg>